<svg width="170" height="182" viewBox="0 0 170 182" fill="none" xmlns="http://www.w3.org/2000/svg">
<path d="M157.86 0.98998H0V24.1H146.3V83.81H52.97C46.59 83.81 41.41 88.98 41.41 95.37V141.05H64.53V106.93H157.86C164.24 106.93 169.42 101.76 169.42 95.37V12.54C169.42 6.15998 164.25 0.97998 157.86 0.97998V0.98998Z" fill="#7115AA"/>
<path d="M82.82 158.34H23.12V65.5099H128.01V42.3999H11.56C5.18 42.3999 0 47.5699 0 53.9599V169.91C0 176.29 5.17 181.47 11.56 181.47H94.38C100.76 181.47 105.94 176.3 105.94 169.91V125.23H82.82V158.36V158.34Z" fill="#7115AA"/>
</svg>
